<?xml version="1.0" standalone="no"?>
 <!DOCTYPE svg PUBLIC "-//W3C//DTD SVG 1.1//EN" 
 "http://www.w3.org/Graphics/SVG/1.1/DTD/svg11.dtd"> 
<svg
  xmlns:svg="http://www.w3.org/2000/svg"
  xmlns="http://www.w3.org/2000/svg"
  xmlns:xlink="http://www.w3.org/1999/xlink"
  version="1.1"
  width="29.700220cm" height="21.000720cm" viewBox="0 0 116930 82680">
<title>SVG Picture created as display-B_Fab.svg date 2021/03/04 22:05:30 </title>
  <desc>Picture generated by PCBNEW </desc>
<g style="fill:#000000; fill-opacity:1;stroke:#000000; stroke-opacity:1;
stroke-linecap:round; stroke-linejoin:round;"
 transform="translate(0 0) scale(1 1)">
</g>
<g style="fill:#000000; fill-opacity:0.0; 
stroke:#000000; stroke-width:-0.000393701; stroke-opacity:1; 
stroke-linecap:round; stroke-linejoin:round;">
</g>
<g style="fill:#000000; fill-opacity:0.0; 
stroke:#000000; stroke-width:39.3701; stroke-opacity:1; 
stroke-linecap:round; stroke-linejoin:round;">
</g>
<g style="fill:#000000; fill-opacity:0.0; 
stroke:#000000; stroke-width:59.0551; stroke-opacity:1; 
stroke-linecap:round; stroke-linejoin:round;">
<rect x="69685.9" y="65357.2" width="42519.7" height="12598.4" rx="0" />
</g>
<g style="fill:#000000; fill-opacity:0.0; 
stroke:#000000; stroke-width:39.3701; stroke-opacity:1; 
stroke-linecap:round; stroke-linejoin:round;">
</g>
<g style="fill:#000000; fill-opacity:0.0; 
stroke:#000000; stroke-width:59.0551; stroke-opacity:1; 
stroke-linecap:round; stroke-linejoin:round;">
<rect x="3937.01" y="3937.01" width="109056" height="74806" rx="0" />
</g>
<g style="fill:#000000; fill-opacity:0.0; 
stroke:#000000; stroke-width:39.3701; stroke-opacity:1; 
stroke-linecap:round; stroke-linejoin:round;">
</g>
<g style="fill:#000000; fill-opacity:0.0; 
stroke:#000000; stroke-width:59.0551; stroke-opacity:1; 
stroke-linecap:round; stroke-linejoin:round;">
<rect x="4724.41" y="4724.41" width="107481" height="73231.2" rx="0" />
</g>
<g style="fill:#000000; fill-opacity:0.0; 
stroke:#000000; stroke-width:39.3701; stroke-opacity:1; 
stroke-linecap:round; stroke-linejoin:round;">
</g>
<g style="fill:#000000; fill-opacity:0.0; 
stroke:#000000; stroke-width:59.0551; stroke-opacity:1; 
stroke-linecap:round; stroke-linejoin:round;">
<path d="M23622 4724
L23622 3937
" />
</g>
<g style="fill:#000000; fill-opacity:0.0; 
stroke:#000000; stroke-width:39.3701; stroke-opacity:1; 
stroke-linecap:round; stroke-linejoin:round;">
</g>
<g style="fill:#000000; fill-opacity:0.0; 
stroke:#000000; stroke-width:59.0551; stroke-opacity:1; 
stroke-linecap:round; stroke-linejoin:round;">
<path d="M43307 4724
L43307 3937
" />
</g>
<g style="fill:#000000; fill-opacity:0.0; 
stroke:#000000; stroke-width:39.3701; stroke-opacity:1; 
stroke-linecap:round; stroke-linejoin:round;">
</g>
<g style="fill:#000000; fill-opacity:0.0; 
stroke:#000000; stroke-width:59.0551; stroke-opacity:1; 
stroke-linecap:round; stroke-linejoin:round;">
<path d="M62992 4724
L62992 3937
" />
</g>
<g style="fill:#000000; fill-opacity:0.0; 
stroke:#000000; stroke-width:39.3701; stroke-opacity:1; 
stroke-linecap:round; stroke-linejoin:round;">
</g>
<g style="fill:#000000; fill-opacity:0.0; 
stroke:#000000; stroke-width:59.0551; stroke-opacity:1; 
stroke-linecap:round; stroke-linejoin:round;">
<path d="M82677 4724
L82677 3937
" />
</g>
<g style="fill:#000000; fill-opacity:0.0; 
stroke:#000000; stroke-width:39.3701; stroke-opacity:1; 
stroke-linecap:round; stroke-linejoin:round;">
</g>
<g style="fill:#000000; fill-opacity:0.0; 
stroke:#000000; stroke-width:59.0551; stroke-opacity:1; 
stroke-linecap:round; stroke-linejoin:round;">
<path d="M102362 4724
L102362 3937
" />
</g>
<g style="fill:#000000; fill-opacity:0.0; 
stroke:#000000; stroke-width:39.3701; stroke-opacity:1; 
stroke-linecap:round; stroke-linejoin:round;">
</g>
<g style="fill:#000000; fill-opacity:0.0; 
stroke:#000000; stroke-width:59.0551; stroke-opacity:1; 
stroke-linecap:round; stroke-linejoin:round;">
<text x="13779.5" y="4586.61"
textLength="546.494" font-size="682.415" lengthAdjust="spacingAndGlyphs"
text-anchor="start" opacity="0">1</text>
<path d="M14199 4562
L13906 4562
" />
<path d="M14052 4562
L14052 4050
L14004 4123
L13955 4172
L13906 4196
" />
</g>
<g style="fill:#000000; fill-opacity:0.0; 
stroke:#000000; stroke-width:39.3701; stroke-opacity:1; 
stroke-linecap:round; stroke-linejoin:round;">
</g>
<g style="fill:#000000; fill-opacity:0.0; 
stroke:#000000; stroke-width:59.0551; stroke-opacity:1; 
stroke-linecap:round; stroke-linejoin:round;">
<text x="33464.6" y="4586.61"
textLength="546.494" font-size="682.415" lengthAdjust="spacingAndGlyphs"
text-anchor="start" opacity="0">2</text>
<path d="M33591 4099
L33615 4074
L33664 4050
L33786 4050
L33835 4074
L33859 4099
L33884 4147
L33884 4196
L33859 4269
L33567 4562
L33884 4562
" />
</g>
<g style="fill:#000000; fill-opacity:0.0; 
stroke:#000000; stroke-width:39.3701; stroke-opacity:1; 
stroke-linecap:round; stroke-linejoin:round;">
</g>
<g style="fill:#000000; fill-opacity:0.0; 
stroke:#000000; stroke-width:59.0551; stroke-opacity:1; 
stroke-linecap:round; stroke-linejoin:round;">
<text x="53149.6" y="4586.61"
textLength="546.494" font-size="682.415" lengthAdjust="spacingAndGlyphs"
text-anchor="start" opacity="0">3</text>
<path d="M53252 4050
L53569 4050
L53398 4245
L53471 4245
L53520 4269
L53544 4294
L53569 4342
L53569 4464
L53544 4513
L53520 4537
L53471 4562
L53325 4562
L53276 4537
L53252 4513
" />
</g>
<g style="fill:#000000; fill-opacity:0.0; 
stroke:#000000; stroke-width:39.3701; stroke-opacity:1; 
stroke-linecap:round; stroke-linejoin:round;">
</g>
<g style="fill:#000000; fill-opacity:0.0; 
stroke:#000000; stroke-width:59.0551; stroke-opacity:1; 
stroke-linecap:round; stroke-linejoin:round;">
<text x="72834.6" y="4586.61"
textLength="546.494" font-size="682.415" lengthAdjust="spacingAndGlyphs"
text-anchor="start" opacity="0">4</text>
<path d="M73205 4221
L73205 4562
" />
<path d="M73083 4026
L72961 4391
L73278 4391
" />
</g>
<g style="fill:#000000; fill-opacity:0.0; 
stroke:#000000; stroke-width:39.3701; stroke-opacity:1; 
stroke-linecap:round; stroke-linejoin:round;">
</g>
<g style="fill:#000000; fill-opacity:0.0; 
stroke:#000000; stroke-width:59.0551; stroke-opacity:1; 
stroke-linecap:round; stroke-linejoin:round;">
<text x="92519.7" y="4586.61"
textLength="546.494" font-size="682.415" lengthAdjust="spacingAndGlyphs"
text-anchor="start" opacity="0">5</text>
<path d="M92914 4050
L92671 4050
L92646 4294
L92671 4269
L92719 4245
L92841 4245
L92890 4269
L92914 4294
L92939 4342
L92939 4464
L92914 4513
L92890 4537
L92841 4562
L92719 4562
L92671 4537
L92646 4513
" />
</g>
<g style="fill:#000000; fill-opacity:0.0; 
stroke:#000000; stroke-width:39.3701; stroke-opacity:1; 
stroke-linecap:round; stroke-linejoin:round;">
</g>
<g style="fill:#000000; fill-opacity:0.0; 
stroke:#000000; stroke-width:59.0551; stroke-opacity:1; 
stroke-linecap:round; stroke-linejoin:round;">
<text x="112205" y="4586.61"
textLength="546.494" font-size="682.415" lengthAdjust="spacingAndGlyphs"
text-anchor="start" opacity="0">6</text>
<path d="M112575 4050
L112477 4050
L112429 4074
L112404 4099
L112356 4172
L112331 4269
L112331 4464
L112356 4513
L112380 4537
L112429 4562
L112526 4562
L112575 4537
L112599 4513
L112624 4464
L112624 4342
L112599 4294
L112575 4269
L112526 4245
L112429 4245
L112380 4269
L112356 4294
L112331 4342
" />
</g>
<g style="fill:#000000; fill-opacity:0.0; 
stroke:#000000; stroke-width:39.3701; stroke-opacity:1; 
stroke-linecap:round; stroke-linejoin:round;">
</g>
<g style="fill:#000000; fill-opacity:0.0; 
stroke:#000000; stroke-width:59.0551; stroke-opacity:1; 
stroke-linecap:round; stroke-linejoin:round;">
<path d="M23622 77955
L23622 78742
" />
</g>
<g style="fill:#000000; fill-opacity:0.0; 
stroke:#000000; stroke-width:39.3701; stroke-opacity:1; 
stroke-linecap:round; stroke-linejoin:round;">
</g>
<g style="fill:#000000; fill-opacity:0.0; 
stroke:#000000; stroke-width:59.0551; stroke-opacity:1; 
stroke-linecap:round; stroke-linejoin:round;">
<path d="M43307 77955
L43307 78742
" />
</g>
<g style="fill:#000000; fill-opacity:0.0; 
stroke:#000000; stroke-width:39.3701; stroke-opacity:1; 
stroke-linecap:round; stroke-linejoin:round;">
</g>
<g style="fill:#000000; fill-opacity:0.0; 
stroke:#000000; stroke-width:59.0551; stroke-opacity:1; 
stroke-linecap:round; stroke-linejoin:round;">
<path d="M62992 77955
L62992 78742
" />
</g>
<g style="fill:#000000; fill-opacity:0.0; 
stroke:#000000; stroke-width:39.3701; stroke-opacity:1; 
stroke-linecap:round; stroke-linejoin:round;">
</g>
<g style="fill:#000000; fill-opacity:0.0; 
stroke:#000000; stroke-width:59.0551; stroke-opacity:1; 
stroke-linecap:round; stroke-linejoin:round;">
<path d="M82677 77955
L82677 78742
" />
</g>
<g style="fill:#000000; fill-opacity:0.0; 
stroke:#000000; stroke-width:39.3701; stroke-opacity:1; 
stroke-linecap:round; stroke-linejoin:round;">
</g>
<g style="fill:#000000; fill-opacity:0.0; 
stroke:#000000; stroke-width:59.0551; stroke-opacity:1; 
stroke-linecap:round; stroke-linejoin:round;">
<path d="M102362 77955
L102362 78742
" />
</g>
<g style="fill:#000000; fill-opacity:0.0; 
stroke:#000000; stroke-width:39.3701; stroke-opacity:1; 
stroke-linecap:round; stroke-linejoin:round;">
</g>
<g style="fill:#000000; fill-opacity:0.0; 
stroke:#000000; stroke-width:59.0551; stroke-opacity:1; 
stroke-linecap:round; stroke-linejoin:round;">
<text x="13779.5" y="78605.2"
textLength="546.494" font-size="682.415" lengthAdjust="spacingAndGlyphs"
text-anchor="start" opacity="0">1</text>
<path d="M14199 78580
L13906 78580
" />
<path d="M14052 78580
L14052 78069
L14004 78142
L13955 78190
L13906 78215
" />
</g>
<g style="fill:#000000; fill-opacity:0.0; 
stroke:#000000; stroke-width:39.3701; stroke-opacity:1; 
stroke-linecap:round; stroke-linejoin:round;">
</g>
<g style="fill:#000000; fill-opacity:0.0; 
stroke:#000000; stroke-width:59.0551; stroke-opacity:1; 
stroke-linecap:round; stroke-linejoin:round;">
<text x="33464.6" y="78605.2"
textLength="546.494" font-size="682.415" lengthAdjust="spacingAndGlyphs"
text-anchor="start" opacity="0">2</text>
<path d="M33591 78117
L33615 78093
L33664 78069
L33786 78069
L33835 78093
L33859 78117
L33884 78166
L33884 78215
L33859 78288
L33567 78580
L33884 78580
" />
</g>
<g style="fill:#000000; fill-opacity:0.0; 
stroke:#000000; stroke-width:39.3701; stroke-opacity:1; 
stroke-linecap:round; stroke-linejoin:round;">
</g>
<g style="fill:#000000; fill-opacity:0.0; 
stroke:#000000; stroke-width:59.0551; stroke-opacity:1; 
stroke-linecap:round; stroke-linejoin:round;">
<text x="53149.6" y="78605.2"
textLength="546.494" font-size="682.415" lengthAdjust="spacingAndGlyphs"
text-anchor="start" opacity="0">3</text>
<path d="M53252 78069
L53569 78069
L53398 78263
L53471 78263
L53520 78288
L53544 78312
L53569 78361
L53569 78483
L53544 78532
L53520 78556
L53471 78580
L53325 78580
L53276 78556
L53252 78532
" />
</g>
<g style="fill:#000000; fill-opacity:0.0; 
stroke:#000000; stroke-width:39.3701; stroke-opacity:1; 
stroke-linecap:round; stroke-linejoin:round;">
</g>
<g style="fill:#000000; fill-opacity:0.0; 
stroke:#000000; stroke-width:59.0551; stroke-opacity:1; 
stroke-linecap:round; stroke-linejoin:round;">
<text x="72834.6" y="78605.2"
textLength="546.494" font-size="682.415" lengthAdjust="spacingAndGlyphs"
text-anchor="start" opacity="0">4</text>
<path d="M73205 78239
L73205 78580
" />
<path d="M73083 78044
L72961 78410
L73278 78410
" />
</g>
<g style="fill:#000000; fill-opacity:0.0; 
stroke:#000000; stroke-width:39.3701; stroke-opacity:1; 
stroke-linecap:round; stroke-linejoin:round;">
</g>
<g style="fill:#000000; fill-opacity:0.0; 
stroke:#000000; stroke-width:59.0551; stroke-opacity:1; 
stroke-linecap:round; stroke-linejoin:round;">
<text x="92519.7" y="78605.2"
textLength="546.494" font-size="682.415" lengthAdjust="spacingAndGlyphs"
text-anchor="start" opacity="0">5</text>
<path d="M92914 78069
L92671 78069
L92646 78312
L92671 78288
L92719 78263
L92841 78263
L92890 78288
L92914 78312
L92939 78361
L92939 78483
L92914 78532
L92890 78556
L92841 78580
L92719 78580
L92671 78556
L92646 78532
" />
</g>
<g style="fill:#000000; fill-opacity:0.0; 
stroke:#000000; stroke-width:39.3701; stroke-opacity:1; 
stroke-linecap:round; stroke-linejoin:round;">
</g>
<g style="fill:#000000; fill-opacity:0.0; 
stroke:#000000; stroke-width:59.0551; stroke-opacity:1; 
stroke-linecap:round; stroke-linejoin:round;">
<text x="112205" y="78605.2"
textLength="546.494" font-size="682.415" lengthAdjust="spacingAndGlyphs"
text-anchor="start" opacity="0">6</text>
<path d="M112575 78069
L112477 78069
L112429 78093
L112404 78117
L112356 78190
L112331 78288
L112331 78483
L112356 78532
L112380 78556
L112429 78580
L112526 78580
L112575 78556
L112599 78532
L112624 78483
L112624 78361
L112599 78312
L112575 78288
L112526 78263
L112429 78263
L112380 78288
L112356 78312
L112331 78361
" />
</g>
<g style="fill:#000000; fill-opacity:0.0; 
stroke:#000000; stroke-width:39.3701; stroke-opacity:1; 
stroke-linecap:round; stroke-linejoin:round;">
</g>
<g style="fill:#000000; fill-opacity:0.0; 
stroke:#000000; stroke-width:59.0551; stroke-opacity:1; 
stroke-linecap:round; stroke-linejoin:round;">
<path d="M3937 23622
L4724 23622
" />
</g>
<g style="fill:#000000; fill-opacity:0.0; 
stroke:#000000; stroke-width:39.3701; stroke-opacity:1; 
stroke-linecap:round; stroke-linejoin:round;">
</g>
<g style="fill:#000000; fill-opacity:0.0; 
stroke:#000000; stroke-width:59.0551; stroke-opacity:1; 
stroke-linecap:round; stroke-linejoin:round;">
<path d="M3937 43307
L4724 43307
" />
</g>
<g style="fill:#000000; fill-opacity:0.0; 
stroke:#000000; stroke-width:39.3701; stroke-opacity:1; 
stroke-linecap:round; stroke-linejoin:round;">
</g>
<g style="fill:#000000; fill-opacity:0.0; 
stroke:#000000; stroke-width:59.0551; stroke-opacity:1; 
stroke-linecap:round; stroke-linejoin:round;">
<path d="M3937 62992
L4724 62992
" />
</g>
<g style="fill:#000000; fill-opacity:0.0; 
stroke:#000000; stroke-width:39.3701; stroke-opacity:1; 
stroke-linecap:round; stroke-linejoin:round;">
</g>
<g style="fill:#000000; fill-opacity:0.0; 
stroke:#000000; stroke-width:59.0551; stroke-opacity:1; 
stroke-linecap:round; stroke-linejoin:round;">
<text x="4330.71" y="14035.4"
textLength="497.75" font-size="682.415" lengthAdjust="spacingAndGlyphs"
text-anchor="middle" opacity="0">A</text>
<path d="M4208 13864
L4452 13864
" />
<path d="M4160 14011
L4330 13499
L4501 14011
" />
</g>
<g style="fill:#000000; fill-opacity:0.0; 
stroke:#000000; stroke-width:39.3701; stroke-opacity:1; 
stroke-linecap:round; stroke-linejoin:round;">
</g>
<g style="fill:#000000; fill-opacity:0.0; 
stroke:#000000; stroke-width:59.0551; stroke-opacity:1; 
stroke-linecap:round; stroke-linejoin:round;">
<text x="4330.71" y="33720.5"
textLength="570.866" font-size="682.415" lengthAdjust="spacingAndGlyphs"
text-anchor="middle" opacity="0">B</text>
<path d="M4367 33428
L4440 33452
L4464 33476
L4489 33525
L4489 33598
L4464 33647
L4440 33671
L4391 33696
L4196 33696
L4196 33184
L4367 33184
L4416 33208
L4440 33233
L4464 33281
L4464 33330
L4440 33379
L4416 33403
L4367 33428
L4196 33428
" />
</g>
<g style="fill:#000000; fill-opacity:0.0; 
stroke:#000000; stroke-width:39.3701; stroke-opacity:1; 
stroke-linecap:round; stroke-linejoin:round;">
</g>
<g style="fill:#000000; fill-opacity:0.0; 
stroke:#000000; stroke-width:59.0551; stroke-opacity:1; 
stroke-linecap:round; stroke-linejoin:round;">
<text x="4330.71" y="53405.5"
textLength="570.866" font-size="682.415" lengthAdjust="spacingAndGlyphs"
text-anchor="middle" opacity="0">C</text>
<path d="M4489 53332
L4464 53356
L4391 53381
L4342 53381
L4269 53356
L4221 53308
L4196 53259
L4172 53161
L4172 53088
L4196 52991
L4221 52942
L4269 52893
L4342 52869
L4391 52869
L4464 52893
L4489 52918
" />
</g>
<g style="fill:#000000; fill-opacity:0.0; 
stroke:#000000; stroke-width:39.3701; stroke-opacity:1; 
stroke-linecap:round; stroke-linejoin:round;">
</g>
<g style="fill:#000000; fill-opacity:0.0; 
stroke:#000000; stroke-width:59.0551; stroke-opacity:1; 
stroke-linecap:round; stroke-linejoin:round;">
<text x="4330.71" y="73090.6"
textLength="570.866" font-size="682.415" lengthAdjust="spacingAndGlyphs"
text-anchor="middle" opacity="0">D</text>
<path d="M4196 73066
L4196 72554
L4318 72554
L4391 72578
L4440 72627
L4464 72676
L4489 72773
L4489 72846
L4464 72944
L4440 72993
L4391 73041
L4318 73066
L4196 73066
" />
</g>
<g style="fill:#000000; fill-opacity:0.0; 
stroke:#000000; stroke-width:39.3701; stroke-opacity:1; 
stroke-linecap:round; stroke-linejoin:round;">
</g>
<g style="fill:#000000; fill-opacity:0.0; 
stroke:#000000; stroke-width:59.0551; stroke-opacity:1; 
stroke-linecap:round; stroke-linejoin:round;">
<path d="M112992 23622
L112205 23622
" />
</g>
<g style="fill:#000000; fill-opacity:0.0; 
stroke:#000000; stroke-width:39.3701; stroke-opacity:1; 
stroke-linecap:round; stroke-linejoin:round;">
</g>
<g style="fill:#000000; fill-opacity:0.0; 
stroke:#000000; stroke-width:59.0551; stroke-opacity:1; 
stroke-linecap:round; stroke-linejoin:round;">
<path d="M112992 43307
L112205 43307
" />
</g>
<g style="fill:#000000; fill-opacity:0.0; 
stroke:#000000; stroke-width:39.3701; stroke-opacity:1; 
stroke-linecap:round; stroke-linejoin:round;">
</g>
<g style="fill:#000000; fill-opacity:0.0; 
stroke:#000000; stroke-width:59.0551; stroke-opacity:1; 
stroke-linecap:round; stroke-linejoin:round;">
<path d="M112992 62992
L112205 62992
" />
</g>
<g style="fill:#000000; fill-opacity:0.0; 
stroke:#000000; stroke-width:39.3701; stroke-opacity:1; 
stroke-linecap:round; stroke-linejoin:round;">
</g>
<g style="fill:#000000; fill-opacity:0.0; 
stroke:#000000; stroke-width:59.0551; stroke-opacity:1; 
stroke-linecap:round; stroke-linejoin:round;">
<text x="112599" y="14035.4"
textLength="497.75" font-size="682.415" lengthAdjust="spacingAndGlyphs"
text-anchor="middle" opacity="0">A</text>
<path d="M112477 13864
L112721 13864
" />
<path d="M112428 14011
L112599 13499
L112769 14011
" />
</g>
<g style="fill:#000000; fill-opacity:0.0; 
stroke:#000000; stroke-width:39.3701; stroke-opacity:1; 
stroke-linecap:round; stroke-linejoin:round;">
</g>
<g style="fill:#000000; fill-opacity:0.0; 
stroke:#000000; stroke-width:59.0551; stroke-opacity:1; 
stroke-linecap:round; stroke-linejoin:round;">
<text x="112599" y="33720.5"
textLength="570.866" font-size="682.415" lengthAdjust="spacingAndGlyphs"
text-anchor="middle" opacity="0">B</text>
<path d="M112635 33428
L112708 33452
L112733 33476
L112757 33525
L112757 33598
L112733 33647
L112708 33671
L112660 33696
L112465 33696
L112465 33184
L112635 33184
L112684 33208
L112708 33233
L112733 33281
L112733 33330
L112708 33379
L112684 33403
L112635 33428
L112465 33428
" />
</g>
<g style="fill:#000000; fill-opacity:0.0; 
stroke:#000000; stroke-width:39.3701; stroke-opacity:1; 
stroke-linecap:round; stroke-linejoin:round;">
</g>
<g style="fill:#000000; fill-opacity:0.0; 
stroke:#000000; stroke-width:59.0551; stroke-opacity:1; 
stroke-linecap:round; stroke-linejoin:round;">
<text x="112599" y="53405.5"
textLength="570.866" font-size="682.415" lengthAdjust="spacingAndGlyphs"
text-anchor="middle" opacity="0">C</text>
<path d="M112757 53332
L112733 53356
L112660 53381
L112611 53381
L112538 53356
L112489 53308
L112465 53259
L112440 53161
L112440 53088
L112465 52991
L112489 52942
L112538 52893
L112611 52869
L112660 52869
L112733 52893
L112757 52918
" />
</g>
<g style="fill:#000000; fill-opacity:0.0; 
stroke:#000000; stroke-width:39.3701; stroke-opacity:1; 
stroke-linecap:round; stroke-linejoin:round;">
</g>
<g style="fill:#000000; fill-opacity:0.0; 
stroke:#000000; stroke-width:59.0551; stroke-opacity:1; 
stroke-linecap:round; stroke-linejoin:round;">
<text x="112599" y="73090.6"
textLength="570.866" font-size="682.415" lengthAdjust="spacingAndGlyphs"
text-anchor="middle" opacity="0">D</text>
<path d="M112465 73066
L112465 72554
L112587 72554
L112660 72578
L112708 72627
L112733 72676
L112757 72773
L112757 72846
L112733 72944
L112708 72993
L112660 73041
L112587 73066
L112465 73066
" />
</g>
<g style="fill:#000000; fill-opacity:0.0; 
stroke:#000000; stroke-width:39.3701; stroke-opacity:1; 
stroke-linecap:round; stroke-linejoin:round;">
</g>
<g style="fill:#000000; fill-opacity:0.0; 
stroke:#000000; stroke-width:59.0551; stroke-opacity:1; 
stroke-linecap:round; stroke-linejoin:round;">
<text x="78741" y="76321.7"
textLength="2758.72" font-size="787.402" lengthAdjust="spacingAndGlyphs"
text-anchor="start" opacity="0">Date: </text>
<path d="M78911 76293
L78911 75703
L79051 75703
L79136 75731
L79192 75787
L79220 75843
L79248 75956
L79248 76040
L79220 76153
L79192 76209
L79136 76265
L79051 76293
L78911 76293
" />
<path d="M79754 76293
L79754 75984
L79726 75928
L79670 75899
L79557 75899
L79501 75928
" />
<path d="M79754 76265
L79698 76293
L79557 76293
L79501 76265
L79473 76209
L79473 76153
L79501 76096
L79557 76068
L79698 76068
L79754 76040
" />
<path d="M79951 75899
L80176 75899
" />
<path d="M80036 75703
L80036 76209
L80064 76265
L80120 76293
L80176 76293
" />
<path d="M80598 76265
L80542 76293
L80429 76293
L80373 76265
L80345 76209
L80345 75984
L80373 75928
L80429 75899
L80542 75899
L80598 75928
L80626 75984
L80626 76040
L80345 76096
" />
<path d="M80879 76237
L80907 76265
L80879 76293
L80851 76265
L80879 76237
L80879 76293
" />
<path d="M80879 75928
L80907 75956
L80879 75984
L80851 75956
L80879 75928
L80879 75984
" />
</g>
<g style="fill:#000000; fill-opacity:0.0; 
stroke:#000000; stroke-width:39.3701; stroke-opacity:1; 
stroke-linecap:round; stroke-linejoin:round;">
</g>
<g style="fill:#000000; fill-opacity:0.0; 
stroke:#000000; stroke-width:59.0551; stroke-opacity:1; 
stroke-linecap:round; stroke-linejoin:round;">
<path d="M69685 76577
L112205 76577
" />
</g>
<g style="fill:#000000; fill-opacity:0.0; 
stroke:#000000; stroke-width:39.3701; stroke-opacity:1; 
stroke-linecap:round; stroke-linejoin:round;">
</g>
<g style="fill:#000000; fill-opacity:0.0; 
stroke:#000000; stroke-width:59.0551; stroke-opacity:1; 
stroke-linecap:round; stroke-linejoin:round;">
<text x="70079.6" y="77424.1"
textLength="24665.4" font-size="787.402" lengthAdjust="spacingAndGlyphs"
text-anchor="start" opacity="0">KiCad E.D.A.  kicad 5.1.7-a382d34a8~88~ubuntu18.04.1</text>
<path d="M70249 77395
L70249 76805
" />
<path d="M70587 77395
L70334 77058
" />
<path d="M70587 76805
L70249 77142
" />
<path d="M70840 77395
L70840 77002
" />
<path d="M70840 76805
L70812 76833
L70840 76861
L70868 76833
L70840 76805
L70840 76861
" />
<path d="M71458 77339
L71430 77367
L71346 77395
L71290 77395
L71205 77367
L71149 77311
L71121 77255
L71093 77142
L71093 77058
L71121 76946
L71149 76889
L71205 76833
L71290 76805
L71346 76805
L71430 76833
L71458 76861
" />
<path d="M71965 77395
L71965 77086
L71937 77030
L71880 77002
L71768 77002
L71712 77030
" />
<path d="M71965 77367
L71908 77395
L71768 77395
L71712 77367
L71683 77311
L71683 77255
L71712 77199
L71768 77171
L71908 77171
L71965 77142
" />
<path d="M72499 77395
L72499 76805
" />
<path d="M72499 77367
L72443 77395
L72330 77395
L72274 77367
L72246 77339
L72218 77283
L72218 77114
L72246 77058
L72274 77030
L72330 77002
L72443 77002
L72499 77030
" />
<path d="M73230 77086
L73427 77086
" />
<path d="M73511 77395
L73230 77395
L73230 76805
L73511 76805
" />
<path d="M73764 77339
L73793 77367
L73764 77395
L73736 77367
L73764 77339
L73764 77395
" />
<path d="M74046 77395
L74046 76805
L74186 76805
L74271 76833
L74327 76889
L74355 76946
L74383 77058
L74383 77142
L74355 77255
L74327 77311
L74271 77367
L74186 77395
L74046 77395
" />
<path d="M74636 77339
L74664 77367
L74636 77395
L74608 77367
L74636 77339
L74636 77395
" />
<path d="M74889 77227
L75171 77227
" />
<path d="M74833 77395
L75030 76805
L75227 77395
" />
<path d="M75424 77339
L75452 77367
L75424 77395
L75395 77367
L75424 77339
L75424 77395
" />
<path d="M76605 77395
L76605 76805
" />
<path d="M76661 77171
L76830 77395
" />
<path d="M76830 77002
L76605 77227
" />
<path d="M77083 77395
L77083 77002
" />
<path d="M77083 76805
L77055 76833
L77083 76861
L77111 76833
L77083 76805
L77083 76861
" />
<path d="M77617 77367
L77561 77395
L77448 77395
L77392 77367
L77364 77339
L77336 77283
L77336 77114
L77364 77058
L77392 77030
L77448 77002
L77561 77002
L77617 77030
" />
<path d="M78123 77395
L78123 77086
L78095 77030
L78039 77002
L77926 77002
L77870 77030
" />
<path d="M78123 77367
L78067 77395
L77926 77395
L77870 77367
L77842 77311
L77842 77255
L77870 77199
L77926 77171
L78067 77171
L78123 77142
" />
<path d="M78658 77395
L78658 76805
" />
<path d="M78658 77367
L78601 77395
L78489 77395
L78433 77367
L78404 77339
L78376 77283
L78376 77114
L78404 77058
L78433 77030
L78489 77002
L78601 77002
L78658 77030
" />
<path d="M79670 76805
L79389 76805
L79361 77086
L79389 77058
L79445 77030
L79586 77030
L79642 77058
L79670 77086
L79698 77142
L79698 77283
L79670 77339
L79642 77367
L79586 77395
L79445 77395
L79389 77367
L79361 77339
" />
<path d="M79951 77339
L79979 77367
L79951 77395
L79923 77367
L79951 77339
L79951 77395
" />
<path d="M80542 77395
L80204 77395
" />
<path d="M80373 77395
L80373 76805
L80317 76889
L80260 76946
L80204 76974
" />
<path d="M80795 77339
L80823 77367
L80795 77395
L80767 77367
L80795 77339
L80795 77395
" />
<path d="M81020 76805
L81413 76805
L81160 77395
" />
<path d="M81638 77171
L82088 77171
" />
<path d="M82623 77395
L82623 77086
L82595 77030
L82538 77002
L82426 77002
L82370 77030
" />
<path d="M82623 77367
L82566 77395
L82426 77395
L82370 77367
L82341 77311
L82341 77255
L82370 77199
L82426 77171
L82566 77171
L82623 77142
" />
<path d="M82848 76805
L83213 76805
L83016 77030
L83101 77030
L83157 77058
L83185 77086
L83213 77142
L83213 77283
L83185 77339
L83157 77367
L83101 77395
L82932 77395
L82876 77367
L82848 77339
" />
<path d="M83551 77058
L83494 77030
L83466 77002
L83438 76946
L83438 76917
L83466 76861
L83494 76833
L83551 76805
L83663 76805
L83719 76833
L83748 76861
L83776 76917
L83776 76946
L83748 77002
L83719 77030
L83663 77058
L83551 77058
L83494 77086
L83466 77114
L83438 77171
L83438 77283
L83466 77339
L83494 77367
L83551 77395
L83663 77395
L83719 77367
L83748 77339
L83776 77283
L83776 77171
L83748 77114
L83719 77086
L83663 77058
" />
<path d="M84001 76861
L84029 76833
L84085 76805
L84226 76805
L84282 76833
L84310 76861
L84338 76917
L84338 76974
L84310 77058
L83973 77395
L84338 77395
" />
<path d="M84844 77395
L84844 76805
" />
<path d="M84844 77367
L84788 77395
L84676 77395
L84619 77367
L84591 77339
L84563 77283
L84563 77114
L84591 77058
L84619 77030
L84676 77002
L84788 77002
L84844 77030
" />
<path d="M85069 76805
L85435 76805
L85238 77030
L85322 77030
L85379 77058
L85407 77086
L85435 77142
L85435 77283
L85407 77339
L85379 77367
L85322 77395
L85154 77395
L85097 77367
L85069 77339
" />
<path d="M85941 77002
L85941 77395
" />
<path d="M85800 76777
L85660 77199
L86025 77199
" />
<path d="M86503 77395
L86503 77086
L86475 77030
L86419 77002
L86307 77002
L86250 77030
" />
<path d="M86503 77367
L86447 77395
L86307 77395
L86250 77367
L86222 77311
L86222 77255
L86250 77199
L86307 77171
L86447 77171
L86503 77142
" />
<path d="M86869 77058
L86813 77030
L86785 77002
L86757 76946
L86757 76917
L86785 76861
L86813 76833
L86869 76805
L86982 76805
L87038 76833
L87066 76861
L87094 76917
L87094 76946
L87066 77002
L87038 77030
L86982 77058
L86869 77058
L86813 77086
L86785 77114
L86757 77171
L86757 77283
L86785 77339
L86813 77367
L86869 77395
L86982 77395
L87038 77367
L87066 77339
L87094 77283
L87094 77171
L87066 77114
L87038 77086
L86982 77058
" />
<path d="M87206 76644
L87769 76644
" />
<path d="M87431 77058
L87375 77030
L87347 77002
L87319 76946
L87319 76917
L87347 76861
L87375 76833
L87431 76805
L87544 76805
L87600 76833
L87628 76861
L87656 76917
L87656 76946
L87628 77002
L87600 77030
L87544 77058
L87431 77058
L87375 77086
L87347 77114
L87319 77171
L87319 77283
L87347 77339
L87375 77367
L87431 77395
L87544 77395
L87600 77367
L87628 77339
L87656 77283
L87656 77171
L87628 77114
L87600 77086
L87544 77058
" />
<path d="M87769 76644
L88331 76644
" />
<path d="M87994 77058
L87938 77030
L87910 77002
L87881 76946
L87881 76917
L87910 76861
L87938 76833
L87994 76805
L88106 76805
L88163 76833
L88191 76861
L88219 76917
L88219 76946
L88191 77002
L88163 77030
L88106 77058
L87994 77058
L87938 77086
L87910 77114
L87881 77171
L87881 77283
L87910 77339
L87938 77367
L87994 77395
L88106 77395
L88163 77367
L88191 77339
L88219 77283
L88219 77171
L88191 77114
L88163 77086
L88106 77058
" />
<path d="M88725 77002
L88725 77395
" />
<path d="M88472 77002
L88472 77311
L88500 77367
L88556 77395
L88641 77395
L88697 77367
L88725 77339
" />
<path d="M89006 77395
L89006 76805
" />
<path d="M89006 77030
L89063 77002
L89175 77002
L89231 77030
L89259 77058
L89287 77114
L89287 77283
L89259 77339
L89231 77367
L89175 77395
L89063 77395
L89006 77367
" />
<path d="M89794 77002
L89794 77395
" />
<path d="M89541 77002
L89541 77311
L89569 77367
L89625 77395
L89709 77395
L89766 77367
L89794 77339
" />
<path d="M90075 77002
L90075 77395
" />
<path d="M90075 77058
L90103 77030
L90159 77002
L90244 77002
L90300 77030
L90328 77086
L90328 77395
" />
<path d="M90525 77002
L90750 77002
" />
<path d="M90609 76805
L90609 77311
L90637 77367
L90694 77395
L90750 77395
" />
<path d="M91200 77002
L91200 77395
" />
<path d="M90947 77002
L90947 77311
L90975 77367
L91031 77395
L91115 77395
L91172 77367
L91200 77339
" />
<path d="M91790 77395
L91453 77395
" />
<path d="M91622 77395
L91622 76805
L91565 76889
L91509 76946
L91453 76974
" />
<path d="M92128 77058
L92072 77030
L92043 77002
L92015 76946
L92015 76917
L92043 76861
L92072 76833
L92128 76805
L92240 76805
L92296 76833
L92325 76861
L92353 76917
L92353 76946
L92325 77002
L92296 77030
L92240 77058
L92128 77058
L92072 77086
L92043 77114
L92015 77171
L92015 77283
L92043 77339
L92072 77367
L92128 77395
L92240 77395
L92296 77367
L92325 77339
L92353 77283
L92353 77171
L92325 77114
L92296 77086
L92240 77058
" />
<path d="M92606 77339
L92634 77367
L92606 77395
L92578 77367
L92606 77339
L92606 77395
" />
<path d="M93000 76805
L93056 76805
L93112 76833
L93140 76861
L93168 76917
L93196 77030
L93196 77171
L93168 77283
L93140 77339
L93112 77367
L93056 77395
L93000 77395
L92943 77367
L92915 77339
L92887 77283
L92859 77171
L92859 77030
L92887 76917
L92915 76861
L92943 76833
L93000 76805
" />
<path d="M93703 77002
L93703 77395
" />
<path d="M93562 76777
L93421 77199
L93787 77199
" />
<path d="M94012 77339
L94040 77367
L94012 77395
L93984 77367
L94012 77339
L94012 77395
" />
<path d="M94602 77395
L94265 77395
" />
<path d="M94434 77395
L94434 76805
L94377 76889
L94321 76946
L94265 76974
" />
</g>
<g style="fill:#000000; fill-opacity:0.0; 
stroke:#000000; stroke-width:39.3701; stroke-opacity:1; 
stroke-linecap:round; stroke-linejoin:round;">
</g>
<g style="fill:#000000; fill-opacity:0.0; 
stroke:#000000; stroke-width:59.0551; stroke-opacity:1; 
stroke-linecap:round; stroke-linejoin:round;">
<path d="M69685 75396
L112205 75396
" />
</g>
<g style="fill:#000000; fill-opacity:0.0; 
stroke:#000000; stroke-width:39.3701; stroke-opacity:1; 
stroke-linecap:round; stroke-linejoin:round;">
</g>
<g style="fill:#000000; fill-opacity:0.0; 
stroke:#000000; stroke-width:118.11; stroke-opacity:1; 
stroke-linecap:round; stroke-linejoin:round;">
<text x="103544" y="76321.7"
textLength="2336.9" font-size="787.402" lengthAdjust="spacingAndGlyphs"
text-anchor="start" opacity="0">Rev: </text>
<path d="M104099 76293
L103902 76012
" />
<path d="M103761 76293
L103761 75703
L103986 75703
L104042 75731
L104070 75759
L104099 75815
L104099 75899
L104070 75956
L104042 75984
L103986 76012
L103761 76012
" />
<path d="M104577 76265
L104520 76293
L104408 76293
L104352 76265
L104323 76209
L104323 75984
L104352 75928
L104408 75899
L104520 75899
L104577 75928
L104605 75984
L104605 76040
L104323 76096
" />
<path d="M104802 75899
L104942 76293
L105083 75899
" />
<path d="M105308 76237
L105336 76265
L105308 76293
L105280 76265
L105308 76237
L105308 76293
" />
<path d="M105308 75928
L105336 75956
L105308 75984
L105280 75956
L105308 75928
L105308 75984
" />
</g>
<g style="fill:#000000; fill-opacity:0.0; 
stroke:#000000; stroke-width:39.3701; stroke-opacity:1; 
stroke-linecap:round; stroke-linejoin:round;">
</g>
<g style="fill:#000000; fill-opacity:0.0; 
stroke:#000000; stroke-width:59.0551; stroke-opacity:1; 
stroke-linecap:round; stroke-linejoin:round;">
<text x="70079.6" y="76321.7"
textLength="3781.21" font-size="787.402" lengthAdjust="spacingAndGlyphs"
text-anchor="start" opacity="0">Size: A4</text>
<path d="M70221 76265
L70305 76293
L70446 76293
L70502 76265
L70530 76237
L70559 76181
L70559 76124
L70530 76068
L70502 76040
L70446 76012
L70334 75984
L70277 75956
L70249 75928
L70221 75871
L70221 75815
L70249 75759
L70277 75731
L70334 75703
L70474 75703
L70559 75731
" />
<path d="M70812 76293
L70812 75899
" />
<path d="M70812 75703
L70784 75731
L70812 75759
L70840 75731
L70812 75703
L70812 75759
" />
<path d="M71037 75899
L71346 75899
L71037 76293
L71346 76293
" />
<path d="M71796 76265
L71740 76293
L71627 76293
L71571 76265
L71543 76209
L71543 75984
L71571 75928
L71627 75899
L71740 75899
L71796 75928
L71824 75984
L71824 76040
L71543 76096
" />
<path d="M72077 76237
L72105 76265
L72077 76293
L72049 76265
L72077 76237
L72077 76293
" />
<path d="M72077 75928
L72105 75956
L72077 75984
L72049 75956
L72077 75928
L72077 75984
" />
<path d="M72780 76124
L73061 76124
" />
<path d="M72724 76293
L72921 75703
L73118 76293
" />
<path d="M73568 75899
L73568 76293
" />
<path d="M73427 75674
L73286 76096
L73652 76096
" />
</g>
<g style="fill:#000000; fill-opacity:0.0; 
stroke:#000000; stroke-width:39.3701; stroke-opacity:1; 
stroke-linecap:round; stroke-linejoin:round;">
</g>
<g style="fill:#000000; fill-opacity:0.0; 
stroke:#000000; stroke-width:59.0551; stroke-opacity:1; 
stroke-linecap:round; stroke-linejoin:round;">
<text x="103544" y="77424.1"
textLength="3349.27" font-size="787.402" lengthAdjust="spacingAndGlyphs"
text-anchor="start" opacity="0">Id: 1/1</text>
<path d="M103714 77395
L103714 76805
" />
<path d="M104248 77395
L104248 76805
" />
<path d="M104248 77367
L104192 77395
L104079 77395
L104023 77367
L103995 77339
L103967 77283
L103967 77114
L103995 77058
L104023 77030
L104079 77002
L104192 77002
L104248 77030
" />
<path d="M104529 77339
L104557 77367
L104529 77395
L104501 77367
L104529 77339
L104529 77395
" />
<path d="M104529 77030
L104557 77058
L104529 77086
L104501 77058
L104529 77030
L104529 77086
" />
<path d="M105570 77395
L105232 77395
" />
<path d="M105401 77395
L105401 76805
L105345 76889
L105289 76946
L105232 76974
" />
<path d="M106245 76777
L105739 77536
" />
<path d="M106751 77395
L106413 77395
" />
<path d="M106582 77395
L106582 76805
L106526 76889
L106470 76946
L106413 76974
" />
</g>
<g style="fill:#000000; fill-opacity:0.0; 
stroke:#000000; stroke-width:39.3701; stroke-opacity:1; 
stroke-linecap:round; stroke-linejoin:round;">
</g>
<g style="fill:#000000; fill-opacity:0.0; 
stroke:#000000; stroke-width:59.0551; stroke-opacity:1; 
stroke-linecap:round; stroke-linejoin:round;">
<path d="M69685 73821
L112205 73821
" />
</g>
<g style="fill:#000000; fill-opacity:0.0; 
stroke:#000000; stroke-width:39.3701; stroke-opacity:1; 
stroke-linecap:round; stroke-linejoin:round;">
</g>
<g style="fill:#000000; fill-opacity:0.0; 
stroke:#000000; stroke-width:157.48; stroke-opacity:1; 
stroke-linecap:round; stroke-linejoin:round;">
<text x="70079.6" y="74924.1"
textLength="3701.14" font-size="1049.87" lengthAdjust="spacingAndGlyphs"
text-anchor="start" opacity="0">Title: </text>
<path d="M70360 74099
L70810 74099
" />
<path d="M70486 74886
L70585 74099
" />
<path d="M70974 74886
L71039 74361
" />
<path d="M71072 74099
L71030 74136
L71063 74174
L71105 74136
L71072 74099
L71063 74174
" />
<path d="M71302 74361
L71602 74361
" />
<path d="M71447 74099
L71363 74774
L71391 74849
L71461 74886
L71536 74886
" />
<path d="M71911 74886
L71841 74849
L71813 74774
L71897 74099
" />
<path d="M72516 74849
L72436 74886
L72286 74886
L72216 74849
L72187 74774
L72225 74474
L72272 74399
L72352 74361
L72501 74361
L72572 74399
L72600 74474
L72591 74549
L72206 74624
" />
<path d="M72895 74811
L72928 74849
L72886 74886
L72853 74849
L72895 74811
L72886 74886
" />
<path d="M72947 74399
L72980 74436
L72937 74474
L72905 74436
L72947 74399
L72937 74474
" />
</g>
<g style="fill:#000000; fill-opacity:0.0; 
stroke:#000000; stroke-width:39.3701; stroke-opacity:1; 
stroke-linecap:round; stroke-linejoin:round;">
</g>
<g style="fill:#000000; fill-opacity:0.0; 
stroke:#000000; stroke-width:59.0551; stroke-opacity:1; 
stroke-linecap:round; stroke-linejoin:round;">
<text x="70079.6" y="73408.3"
textLength="10300.3" font-size="787.402" lengthAdjust="spacingAndGlyphs"
text-anchor="start" opacity="0">File: display.kicad_pcb</text>
<path d="M70446 73070
L70249 73070
" />
<path d="M70249 73380
L70249 72789
L70530 72789
" />
<path d="M70755 73380
L70755 72986
" />
<path d="M70755 72789
L70727 72817
L70755 72845
L70784 72817
L70755 72789
L70755 72845
" />
<path d="M71121 73380
L71065 73352
L71037 73295
L71037 72789
" />
<path d="M71571 73352
L71515 73380
L71402 73380
L71346 73352
L71318 73295
L71318 73070
L71346 73014
L71402 72986
L71515 72986
L71571 73014
L71599 73070
L71599 73127
L71318 73183
" />
<path d="M71852 73323
L71880 73352
L71852 73380
L71824 73352
L71852 73323
L71852 73380
" />
<path d="M71852 73014
L71880 73042
L71852 73070
L71824 73042
L71852 73014
L71852 73070
" />
<path d="M72836 73380
L72836 72789
" />
<path d="M72836 73352
L72780 73380
L72668 73380
L72611 73352
L72583 73323
L72555 73267
L72555 73099
L72583 73042
L72611 73014
L72668 72986
L72780 72986
L72836 73014
" />
<path d="M73118 73380
L73118 72986
" />
<path d="M73118 72789
L73090 72817
L73118 72845
L73146 72817
L73118 72789
L73118 72845
" />
<path d="M73371 73352
L73427 73380
L73539 73380
L73596 73352
L73624 73295
L73624 73267
L73596 73211
L73539 73183
L73455 73183
L73399 73155
L73371 73099
L73371 73070
L73399 73014
L73455 72986
L73539 72986
L73596 73014
" />
<path d="M73877 72986
L73877 73577
" />
<path d="M73877 73014
L73933 72986
L74046 72986
L74102 73014
L74130 73042
L74158 73099
L74158 73267
L74130 73323
L74102 73352
L74046 73380
L73933 73380
L73877 73352
" />
<path d="M74496 73380
L74439 73352
L74411 73295
L74411 72789
" />
<path d="M74974 73380
L74974 73070
L74946 73014
L74889 72986
L74777 72986
L74721 73014
" />
<path d="M74974 73352
L74917 73380
L74777 73380
L74721 73352
L74692 73295
L74692 73239
L74721 73183
L74777 73155
L74917 73155
L74974 73127
" />
<path d="M75199 72986
L75339 73380
" />
<path d="M75480 72986
L75339 73380
L75283 73520
L75255 73548
L75199 73577
" />
<path d="M75705 73323
L75733 73352
L75705 73380
L75677 73352
L75705 73323
L75705 73380
" />
<path d="M75986 73380
L75986 72789
" />
<path d="M76042 73155
L76211 73380
" />
<path d="M76211 72986
L75986 73211
" />
<path d="M76464 73380
L76464 72986
" />
<path d="M76464 72789
L76436 72817
L76464 72845
L76492 72817
L76464 72789
L76464 72845
" />
<path d="M76998 73352
L76942 73380
L76830 73380
L76773 73352
L76745 73323
L76717 73267
L76717 73099
L76745 73042
L76773 73014
L76830 72986
L76942 72986
L76998 73014
" />
<path d="M77505 73380
L77505 73070
L77476 73014
L77420 72986
L77308 72986
L77251 73014
" />
<path d="M77505 73352
L77448 73380
L77308 73380
L77251 73352
L77223 73295
L77223 73239
L77251 73183
L77308 73155
L77448 73155
L77505 73127
" />
<path d="M78039 73380
L78039 72789
" />
<path d="M78039 73352
L77983 73380
L77870 73380
L77814 73352
L77786 73323
L77758 73267
L77758 73099
L77786 73042
L77814 73014
L77870 72986
L77983 72986
L78039 73014
" />
<path d="M78180 73436
L78629 73436
" />
<path d="M78770 72986
L78770 73577
" />
<path d="M78770 73014
L78826 72986
L78939 72986
L78995 73014
L79023 73042
L79051 73099
L79051 73267
L79023 73323
L78995 73352
L78939 73380
L78826 73380
L78770 73352
" />
<path d="M79557 73352
L79501 73380
L79389 73380
L79332 73352
L79304 73323
L79276 73267
L79276 73099
L79304 73042
L79332 73014
L79389 72986
L79501 72986
L79557 73014
" />
<path d="M79811 73380
L79811 72789
" />
<path d="M79811 73014
L79867 72986
L79979 72986
L80036 73014
L80064 73042
L80092 73099
L80092 73267
L80064 73323
L80036 73352
L79979 73380
L79867 73380
L79811 73352
" />
</g>
<g style="fill:#000000; fill-opacity:0.0; 
stroke:#000000; stroke-width:39.3701; stroke-opacity:1; 
stroke-linecap:round; stroke-linejoin:round;">
</g>
<g style="fill:#000000; fill-opacity:0.0; 
stroke:#000000; stroke-width:59.0551; stroke-opacity:1; 
stroke-linecap:round; stroke-linejoin:round;">
<path d="M69685 71459
L112205 71459
" />
</g>
<g style="fill:#000000; fill-opacity:0.0; 
stroke:#000000; stroke-width:39.3701; stroke-opacity:1; 
stroke-linecap:round; stroke-linejoin:round;">
</g>
<g style="fill:#000000; fill-opacity:0.0; 
stroke:#000000; stroke-width:59.0551; stroke-opacity:1; 
stroke-linecap:round; stroke-linejoin:round;">
<text x="70079.6" y="72345.4"
textLength="3236.78" font-size="787.402" lengthAdjust="spacingAndGlyphs"
text-anchor="start" opacity="0">Sheet: </text>
<path d="M70221 72289
L70305 72317
L70446 72317
L70502 72289
L70530 72260
L70559 72204
L70559 72148
L70530 72092
L70502 72064
L70446 72036
L70334 72007
L70277 71979
L70249 71951
L70221 71895
L70221 71839
L70249 71782
L70277 71754
L70334 71726
L70474 71726
L70559 71754
" />
<path d="M70812 72317
L70812 71726
" />
<path d="M71065 72317
L71065 72007
L71037 71951
L70980 71923
L70896 71923
L70840 71951
L70812 71979
" />
<path d="M71571 72289
L71515 72317
L71402 72317
L71346 72289
L71318 72232
L71318 72007
L71346 71951
L71402 71923
L71515 71923
L71571 71951
L71599 72007
L71599 72064
L71318 72120
" />
<path d="M72077 72289
L72021 72317
L71908 72317
L71852 72289
L71824 72232
L71824 72007
L71852 71951
L71908 71923
L72021 71923
L72077 71951
L72105 72007
L72105 72064
L71824 72120
" />
<path d="M72274 71923
L72499 71923
" />
<path d="M72358 71726
L72358 72232
L72386 72289
L72443 72317
L72499 72317
" />
<path d="M72696 72260
L72724 72289
L72696 72317
L72668 72289
L72696 72260
L72696 72317
" />
<path d="M72696 71951
L72724 71979
L72696 72007
L72668 71979
L72696 71951
L72696 72007
" />
</g>
<g style="fill:#000000; fill-opacity:0.0; 
stroke:#000000; stroke-width:39.3701; stroke-opacity:1; 
stroke-linecap:round; stroke-linejoin:round;">
</g>
<g style="fill:#000000; fill-opacity:0.0; 
stroke:#000000; stroke-width:59.0551; stroke-opacity:1; 
stroke-linecap:round; stroke-linejoin:round;">
<path d="M77559 75396
L77559 76577
" />
</g>
<g style="fill:#000000; fill-opacity:0.0; 
stroke:#000000; stroke-width:39.3701; stroke-opacity:1; 
stroke-linecap:round; stroke-linejoin:round;">
</g>
<g style="fill:#000000; fill-opacity:0.0; 
stroke:#000000; stroke-width:59.0551; stroke-opacity:1; 
stroke-linecap:round; stroke-linejoin:round;">
<path d="M102756 75396
L102756 77955
" />
</g>
<g style="fill:#000084; fill-opacity:0.0; 
stroke:#000084; stroke-width:59.0551; stroke-opacity:1; 
stroke-linecap:round; stroke-linejoin:round;">
<path d="M108295 38791
L108295 19500
" />
<path d="M76011 18122
L106917 18122
" />
<path d="M74830 38988
L74830 19303
" />
<path d="M106917 40169
L76011 40169
" />
<path d="M105500 18500
L85500 18500
" />
<path d="M85500 20500
L105500 20500
" />
<path d="M105500 18500
L105500 20500
" />
<path d="M85502 20500
L85502 18500
" />
<path d="M76011.8 18122 A1181.1 1181.1 0.0 0 0 74830.7 19303.1" />
<path d="M74830.7 38988.2 A1181.1 1181.1 0.0 0 0 76011.8 40169.3" />
<path d="M106917 40169.3 A1377.95 1377.95 0.0 0 0 108295 38791.3" />
<path d="M108295 19500 A1377.95 1377.95 0.0 0 0 106917 18122" />
<g >
</g>
<g >
</g>
<g >
</g>
<g >
</g>
<g >
</g>
<g >
</g>
<g >
</g>
<g >
</g>
<g >
</g>
<g >
</g>
<g >
</g>
<g >
</g>
<g >
</g>
<g >
</g>
<g >
</g>
<g >
</g>
<g >
</g>
<g >
</g>
<g >
</g>
<g >
</g>
<g >
</g>
<g >
</g>
</g>
<g style="fill:#000084; fill-opacity:0.0; 
stroke:#000084; stroke-width:59.0551; stroke-opacity:1; 
stroke-linecap:round; stroke-linejoin:round;">
<text x="31100" y="39596.9"
transform="scale(-1 1) translate(-62200.000000 0)"
textLength="9970.94" font-size="524.934" lengthAdjust="spacingAndGlyphs"
text-anchor="middle" opacity="0">Arduino_Mega2560_Shield-moded</text>
<path d="M36040 39465
L35852 39465
" />
<path d="M36077 39578
L35946 39184
L35815 39578
" />
<path d="M35683 39578
L35683 39315
" />
<path d="M35683 39390
L35665 39353
L35646 39334
L35608 39315
L35571 39315
" />
<path d="M35271 39578
L35271 39184
" />
<path d="M35271 39559
L35308 39578
L35383 39578
L35421 39559
L35440 39540
L35458 39503
L35458 39390
L35440 39353
L35421 39334
L35383 39315
L35308 39315
L35271 39334
" />
<path d="M34915 39315
L34915 39578
" />
<path d="M35083 39315
L35083 39521
L35065 39559
L35027 39578
L34971 39578
L34933 39559
L34915 39540
" />
<path d="M34727 39578
L34727 39315
" />
<path d="M34727 39184
L34746 39203
L34727 39221
L34708 39203
L34727 39184
L34727 39221
" />
<path d="M34540 39315
L34540 39578
" />
<path d="M34540 39353
L34521 39334
L34483 39315
L34427 39315
L34390 39334
L34371 39371
L34371 39578
" />
<path d="M34127 39578
L34165 39559
L34183 39540
L34202 39503
L34202 39390
L34183 39353
L34165 39334
L34127 39315
L34071 39315
L34034 39334
L34015 39353
L33996 39390
L33996 39503
L34015 39540
L34034 39559
L34071 39578
L34127 39578
" />
<path d="M33921 39615
L33621 39615
" />
<path d="M33527 39578
L33527 39184
L33396 39465
L33265 39184
L33265 39578
" />
<path d="M32927 39559
L32965 39578
L33040 39578
L33077 39559
L33096 39521
L33096 39371
L33077 39334
L33040 39315
L32965 39315
L32927 39334
L32909 39371
L32909 39409
L33096 39446
" />
<path d="M32571 39315
L32571 39634
L32590 39671
L32609 39690
L32646 39709
L32702 39709
L32740 39690
" />
<path d="M32571 39559
L32609 39578
L32684 39578
L32721 39559
L32740 39540
L32759 39503
L32759 39390
L32740 39353
L32721 39334
L32684 39315
L32609 39315
L32571 39334
" />
<path d="M32215 39578
L32215 39371
L32234 39334
L32271 39315
L32346 39315
L32384 39334
" />
<path d="M32215 39559
L32252 39578
L32346 39578
L32384 39559
L32402 39521
L32402 39484
L32384 39446
L32346 39428
L32252 39428
L32215 39409
" />
<path d="M32046 39221
L32028 39203
L31990 39184
L31896 39184
L31859 39203
L31840 39221
L31821 39259
L31821 39296
L31840 39353
L32065 39578
L31821 39578
" />
<path d="M31465 39184
L31653 39184
L31671 39371
L31653 39353
L31615 39334
L31521 39334
L31484 39353
L31465 39371
L31446 39409
L31446 39503
L31465 39540
L31484 39559
L31521 39578
L31615 39578
L31653 39559
L31671 39540
" />
<path d="M31109 39184
L31184 39184
L31221 39203
L31240 39221
L31278 39278
L31296 39353
L31296 39503
L31278 39540
L31259 39559
L31221 39578
L31146 39578
L31109 39559
L31090 39540
L31071 39503
L31071 39409
L31090 39371
L31109 39353
L31146 39334
L31221 39334
L31259 39353
L31278 39371
L31296 39409
" />
<path d="M30828 39184
L30790 39184
L30753 39203
L30734 39221
L30715 39259
L30696 39334
L30696 39428
L30715 39503
L30734 39540
L30753 39559
L30790 39578
L30828 39578
L30865 39559
L30884 39540
L30903 39503
L30921 39428
L30921 39334
L30903 39259
L30884 39221
L30865 39203
L30828 39184
" />
<path d="M30621 39615
L30321 39615
" />
<path d="M30246 39559
L30190 39578
L30097 39578
L30059 39559
L30040 39540
L30022 39503
L30022 39465
L30040 39428
L30059 39409
L30097 39390
L30171 39371
L30209 39353
L30228 39334
L30246 39296
L30246 39259
L30228 39221
L30209 39203
L30171 39184
L30078 39184
L30022 39203
" />
<path d="M29853 39578
L29853 39184
" />
<path d="M29684 39578
L29684 39371
L29703 39334
L29740 39315
L29797 39315
L29834 39334
L29853 39353
" />
<path d="M29497 39578
L29497 39315
" />
<path d="M29497 39184
L29515 39203
L29497 39221
L29478 39203
L29497 39184
L29497 39221
" />
<path d="M29159 39559
L29197 39578
L29272 39578
L29309 39559
L29328 39521
L29328 39371
L29309 39334
L29272 39315
L29197 39315
L29159 39334
L29140 39371
L29140 39409
L29328 39446
" />
<path d="M28915 39578
L28953 39559
L28972 39521
L28972 39184
" />
<path d="M28597 39578
L28597 39184
" />
<path d="M28597 39559
L28634 39578
L28709 39578
L28747 39559
L28765 39540
L28784 39503
L28784 39390
L28765 39353
L28747 39334
L28709 39315
L28634 39315
L28597 39334
" />
<path d="M28409 39428
L28109 39428
" />
<path d="M27922 39578
L27922 39315
" />
<path d="M27922 39353
L27903 39334
L27866 39315
L27809 39315
L27772 39334
L27753 39371
L27753 39578
" />
<path d="M27753 39371
L27734 39334
L27697 39315
L27641 39315
L27603 39334
L27584 39371
L27584 39578
" />
<path d="M27341 39578
L27378 39559
L27397 39540
L27416 39503
L27416 39390
L27397 39353
L27378 39334
L27341 39315
L27284 39315
L27247 39334
L27228 39353
L27209 39390
L27209 39503
L27228 39540
L27247 39559
L27284 39578
L27341 39578
" />
<path d="M26872 39578
L26872 39184
" />
<path d="M26872 39559
L26909 39578
L26984 39578
L27022 39559
L27041 39540
L27059 39503
L27059 39390
L27041 39353
L27022 39334
L26984 39315
L26909 39315
L26872 39334
" />
<path d="M26534 39559
L26572 39578
L26647 39578
L26684 39559
L26703 39521
L26703 39371
L26684 39334
L26647 39315
L26572 39315
L26534 39334
L26516 39371
L26516 39409
L26703 39446
" />
<path d="M26178 39578
L26178 39184
" />
<path d="M26178 39559
L26216 39578
L26291 39578
L26328 39559
L26347 39540
L26366 39503
L26366 39390
L26347 39353
L26328 39334
L26291 39315
L26216 39315
L26178 39334
" />
</g>
<g style="fill:#000084; fill-opacity:0.0; 
stroke:#000084; stroke-width:98.4252; stroke-opacity:1; 
stroke-linecap:round; stroke-linejoin:round;">
<text x="95500" y="16389.8"
transform="scale(-1 1) translate(-191000.000000 0)"
textLength="2172.95" font-size="1049.87" lengthAdjust="spacingAndGlyphs"
text-anchor="middle" opacity="0">RP?</text>
<path d="M95987 16352
L96249 15977
" />
<path d="M96437 16352
L96437 15564
L96137 15564
L96062 15602
L96024 15639
L95987 15714
L95987 15827
L96024 15902
L96062 15939
L96137 15977
L96437 15977
" />
<path d="M95649 16352
L95649 15564
L95350 15564
L95275 15602
L95237 15639
L95200 15714
L95200 15827
L95237 15902
L95275 15939
L95350 15977
L95649 15977
" />
<path d="M94750 16277
L94712 16314
L94750 16352
L94787 16314
L94750 16277
L94750 16352
" />
<path d="M94900 15602
L94825 15564
L94637 15564
L94562 15602
L94525 15677
L94525 15752
L94562 15827
L94600 15864
L94675 15902
L94712 15939
L94750 16014
L94750 16052
" />
<text x="95460.6" y="17649.6"
transform="scale(-1 1) translate(-190921.259843 0)"
textLength="10145.8" font-size="1049.87" lengthAdjust="spacingAndGlyphs"
text-anchor="middle" opacity="0">Raspberry_Pi_2_3</text>
<path d="M99960 17612
L100222 17237
" />
<path d="M100410 17612
L100410 16824
L100110 16824
L100035 16862
L99997 16899
L99960 16974
L99960 17087
L99997 17162
L100035 17199
L100110 17237
L100410 17237
" />
<path d="M99285 17612
L99285 17199
L99322 17124
L99397 17087
L99547 17087
L99622 17124
" />
<path d="M99285 17574
L99360 17612
L99547 17612
L99622 17574
L99660 17499
L99660 17424
L99622 17349
L99547 17312
L99360 17312
L99285 17274
" />
<path d="M98947 17574
L98872 17612
L98722 17612
L98647 17574
L98610 17499
L98610 17462
L98647 17387
L98722 17349
L98835 17349
L98910 17312
L98947 17237
L98947 17199
L98910 17124
L98835 17087
L98722 17087
L98647 17124
" />
<path d="M98272 17087
L98272 17874
" />
<path d="M98272 17124
L98197 17087
L98047 17087
L97972 17124
L97935 17162
L97897 17237
L97897 17462
L97935 17537
L97972 17574
L98047 17612
L98197 17612
L98272 17574
" />
<path d="M97560 17612
L97560 16824
" />
<path d="M97560 17124
L97485 17087
L97335 17087
L97260 17124
L97222 17162
L97185 17237
L97185 17462
L97222 17537
L97260 17574
L97335 17612
L97485 17612
L97560 17574
" />
<path d="M96547 17574
L96622 17612
L96772 17612
L96847 17574
L96885 17499
L96885 17199
L96847 17124
L96772 17087
L96622 17087
L96547 17124
L96510 17199
L96510 17274
L96885 17349
" />
<path d="M96173 17612
L96173 17087
" />
<path d="M96173 17237
L96135 17162
L96098 17124
L96023 17087
L95948 17087
" />
<path d="M95685 17612
L95685 17087
" />
<path d="M95685 17237
L95648 17162
L95610 17124
L95535 17087
L95460 17087
" />
<path d="M95273 17087
L95085 17612
" />
<path d="M94898 17087
L95085 17612
L95160 17799
L95198 17837
L95273 17874
" />
<path d="M94785 17687
L94185 17687
" />
<path d="M93998 17612
L93998 16824
L93698 16824
L93623 16862
L93585 16899
L93548 16974
L93548 17087
L93585 17162
L93623 17199
L93698 17237
L93998 17237
" />
<path d="M93210 17612
L93210 17087
" />
<path d="M93210 16824
L93248 16862
L93210 16899
L93173 16862
L93210 16824
L93210 16899
" />
<path d="M93023 17687
L92423 17687
" />
<path d="M92273 16899
L92236 16862
L92161 16824
L91973 16824
L91898 16862
L91861 16899
L91823 16974
L91823 17049
L91861 17162
L92311 17612
L91823 17612
" />
<path d="M91673 17687
L91073 17687
" />
<path d="M90961 16824
L90473 16824
L90736 17124
L90623 17124
L90548 17162
L90511 17199
L90473 17274
L90473 17462
L90511 17537
L90548 17574
L90623 17612
L90848 17612
L90923 17574
L90961 17537
" />
</g>
<g style="fill:#000084; fill-opacity:0.0; 
stroke:#000084; stroke-width:59.0551; stroke-opacity:1; 
stroke-linecap:round; stroke-linejoin:round;">
<text x="86169.3" y="17019.7"
transform="scale(-1 1) translate(-172338.582677 0)"
textLength="3602.83" font-size="524.934" lengthAdjust="spacingAndGlyphs"
text-anchor="middle" opacity="0">By Lukaneco</text>
<path d="M87809 16794
L87753 16813
L87734 16832
L87715 16869
L87715 16925
L87734 16963
L87753 16982
L87790 17000
L87940 17000
L87940 16607
L87809 16607
L87772 16625
L87753 16644
L87734 16682
L87734 16719
L87753 16757
L87772 16775
L87809 16794
L87940 16794
" />
<path d="M87584 16738
L87491 17000
" />
<path d="M87397 16738
L87491 17000
L87528 17094
L87547 17113
L87584 17132
" />
<path d="M86759 17000
L86947 17000
L86947 16607
" />
<path d="M86459 16738
L86459 17000
" />
<path d="M86628 16738
L86628 16944
L86609 16982
L86572 17000
L86516 17000
L86478 16982
L86459 16963
" />
<path d="M86272 17000
L86272 16607
" />
<path d="M86234 16850
L86122 17000
" />
<path d="M86122 16738
L86272 16888
" />
<path d="M85784 17000
L85784 16794
L85803 16757
L85841 16738
L85916 16738
L85953 16757
" />
<path d="M85784 16982
L85822 17000
L85916 17000
L85953 16982
L85972 16944
L85972 16907
L85953 16869
L85916 16850
L85822 16850
L85784 16832
" />
<path d="M85597 16738
L85597 17000
" />
<path d="M85597 16775
L85578 16757
L85541 16738
L85485 16738
L85447 16757
L85428 16794
L85428 17000
" />
<path d="M85091 16982
L85128 17000
L85203 17000
L85241 16982
L85260 16944
L85260 16794
L85241 16757
L85203 16738
L85128 16738
L85091 16757
L85072 16794
L85072 16832
L85260 16869
" />
<path d="M84735 16982
L84772 17000
L84847 17000
L84885 16982
L84903 16963
L84922 16925
L84922 16813
L84903 16775
L84885 16757
L84847 16738
L84772 16738
L84735 16757
" />
<path d="M84510 17000
L84547 16982
L84566 16963
L84585 16925
L84585 16813
L84566 16775
L84547 16757
L84510 16738
L84453 16738
L84416 16757
L84397 16775
L84378 16813
L84378 16925
L84397 16963
L84416 16982
L84453 17000
L84510 17000
" />
<g >
</g>
</g>
<g style="fill:#000000; fill-opacity:0.0; 
stroke:#000000; stroke-width:59.0551; stroke-opacity:1; 
stroke-linecap:round; stroke-linejoin:round;">
</g>
<g style="fill:#C2C200; fill-opacity:0.0; 
stroke:#C2C200; stroke-width:59.0551; stroke-opacity:1; 
stroke-linecap:round; stroke-linejoin:round;">
</g>
<g style="fill:#C2C200; fill-opacity:0.0; 
stroke:#C2C200; stroke-width:19.685; stroke-opacity:1; 
stroke-linecap:round; stroke-linejoin:round;">
<path d="M109776 45236
L109776 45629
" />
<path d="M116338 45236
L116338 45629
" />
<path d="M112007 45236
L112007 45629
" />
<path d="M105445 45236
L105445 45629
" />
<path d="M98884 45236
L103214 45236
" />
<path d="M105445 45629
L109776 45629
" />
<path d="M103214 45236
L103214 45629
" />
<path d="M66075 45236
L70406 45236
" />
<path d="M66075 45629
L70406 45629
" />
<path d="M92322 45236
L96653 45236
" />
<path d="M90091 45236
L90091 45629
" />
<path d="M72637 45236
L72637 45629
" />
<path d="M76968 45236
L76968 45629
" />
<path d="M79199 45629
L83529 45629
" />
<path d="M83529 45236
L83529 45629
" />
<path d="M112007 45236
L116338 45236
" />
<path d="M79199 45236
L83529 45236
" />
<path d="M96653 45236
L96653 45629
" />
<path d="M85760 45629
L90091 45629
" />
<path d="M92322 45236
L92322 45629
" />
<path d="M70406 45236
L70406 45629
" />
<path d="M72637 45629
L76968 45629
" />
<path d="M79199 45236
L79199 45629
" />
<path d="M66075 45236
L66075 45629
" />
<path d="M72637 45236
L76968 45236
" />
<path d="M85760 45236
L90091 45236
" />
<path d="M92322 45629
L96653 45629
" />
<path d="M85760 45236
L85760 45629
" />
<path d="M98884 45236
L98884 45629
" />
<path d="M98884 45629
L103214 45629
" />
<path d="M112007 45629
L116338 45629
" />
<path d="M105445 45236
L109776 45236
" />
<path d="M59514 45236
L63844 45236
" />
<path d="M63844 45236
L63844 45629
" />
<path d="M59514 45236
L59514 45629
" />
<path d="M59514 45629
L63844 45629
" />
<path d="M52952 45236
L57283 45236
" />
<path d="M57283 45236
L57283 45629
" />
<path d="M52952 45236
L52952 45629
" />
<path d="M52952 45629
L57283 45629
" />
<path d="M46390 45236
L50721 45236
" />
<path d="M50721 45236
L50721 45629
" />
<path d="M46390 45236
L46390 45629
" />
<path d="M46390 45629
L50721 45629
" />
<path d="M44160 45236
L44160 45629
" />
<path d="M39829 45629
L44160 45629
" />
<path d="M39829 45236
L44160 45236
" />
<path d="M39829 45236
L39829 45629
" />
<path d="M33267 45629
L37598 45629
" />
<path d="M37598 45236
L37598 45629
" />
<path d="M33267 45236
L37598 45236
" />
<path d="M33267 45236
L33267 45629
" />
<path d="M26705 45236
L26705 45629
" />
<path d="M26705 45236
L31036 45236
" />
<path d="M31036 45236
L31036 45629
" />
<path d="M26705 45629
L31036 45629
" />
<path d="M24475 45236
L24475 45629
" />
<path d="M20144 45236
L20144 45629
" />
<path d="M20144 45629
L24475 45629
" />
<path d="M20144 45236
L24475 45236
" />
<path d="M13582 45236
L13582 45629
" />
<path d="M13582 45236
L17913 45236
" />
<path d="M13582 45629
L17913 45629
" />
<path d="M118700 52000
L11181 52000
" />
<path d="M118700 16566
L118700 52000
" />
<path d="M11181 16566
L118700 16566
" />
<path d="M11181 52000
L11181 16566
" />
<g >
</g>
<g >
</g>
<g >
</g>
<g >
</g>
<g >
</g>
<g >
</g>
<g >
</g>
<g >
</g>
<g >
</g>
<g >
</g>
<g >
</g>
<g >
</g>
<g >
</g>
<g >
</g>
<g >
</g>
<g >
</g>
<g >
</g>
<g >
</g>
<g >
</g>
<g >
</g>
<g >
</g>
<g >
</g>
<g >
</g>
</g> 
</svg>
